<?xml version="1.0" encoding="utf-8"?>
<!-- Generator: Adobe Illustrator 21.1.0, SVG Export Plug-In . SVG Version: 6.00 Build 0)  -->
<svg version="1.1" xmlns="http://www.w3.org/2000/svg" xmlns:xlink="http://www.w3.org/1999/xlink" x="0px" y="0px"
	 viewBox="0 0 60 60" enable-background="new 0 0 60 60" xml:space="preserve">
<g id="Capa_1">
	<g>
		<path d="M10,14v32c0,2.2,1.8,4,4,4h9.3c0.4,0,0.7,0,0.9,0c0.2,0,0.4-0.1,0.6-0.3c0.2-0.2,0.3-0.5,0.3-0.9c0-0.1,0-0.6,0-1.8
			c0-1.1,0-2,0-2.7l-0.6,0.1c-0.4,0.1-0.9,0.1-1.4,0.1c-0.6,0-1.2-0.1-1.8-0.2c-0.6-0.1-1.2-0.4-1.7-0.8c-0.5-0.4-0.9-0.9-1.1-1.6
			L18,41.4c-0.2-0.4-0.4-0.8-0.8-1.3c-0.4-0.5-0.8-0.8-1.1-1l-0.2-0.1c-0.1-0.1-0.2-0.2-0.3-0.3c-0.1-0.1-0.2-0.2-0.2-0.4
			c-0.1-0.1,0-0.2,0.1-0.3c0.1-0.1,0.4-0.1,0.8-0.1l0.5,0.1c0.3,0.1,0.8,0.3,1.3,0.6c0.5,0.3,0.9,0.8,1.3,1.4
			c0.4,0.7,0.9,1.3,1.4,1.6c0.6,0.4,1.1,0.6,1.7,0.6c0.6,0,1.1,0,1.5-0.1c0.4-0.1,0.8-0.2,1.2-0.4c0.2-1.2,0.6-2.1,1.3-2.7
			c-1-0.1-1.9-0.3-2.7-0.5c-0.8-0.2-1.6-0.5-2.4-1c-0.8-0.5-1.5-1.1-2.1-1.7c-0.6-0.7-1-1.6-1.4-2.7c-0.4-1.1-0.5-2.4-0.5-3.9
			c0-2.1,0.7-3.9,2.1-5.4c-0.6-1.6-0.6-3.4,0.2-5.3c0.5-0.2,1.3,0,2.2,0.4c1,0.4,1.7,0.7,2.2,1c0.5,0.3,0.8,0.5,1.1,0.7
			c1.6-0.5,3.3-0.7,5-0.7c1.7,0,3.4,0.2,5,0.7l1-0.6c0.7-0.4,1.5-0.8,2.4-1.1c0.9-0.3,1.6-0.4,2.1-0.3c0.8,2,0.9,3.7,0.2,5.3
			c1.4,1.5,2.1,3.3,2.1,5.4c0,1.5-0.2,2.8-0.5,3.9c-0.4,1.1-0.8,2-1.4,2.7c-0.6,0.7-1.3,1.3-2.1,1.7c-0.8,0.5-1.7,0.8-2.4,1
			c-0.8,0.2-1.7,0.4-2.7,0.5c0.9,0.8,1.4,2,1.4,3.7v6.2c0,0.3,0,0.5,0.1,0.7c0.1,0.2,0.2,0.3,0.4,0.4c0.2,0.1,0.4,0.1,0.5,0.1
			c0.1,0,0.4,0,0.6,0H46c2.2,0,4-1.8,4-4V14.1c0-2.2-1.8-4-4-4L14,10C11.8,10,10,11.8,10,14z"/>
	</g>
</g>
<g id="Layer_2" display="none">
	<g display="inline">
		<path d="M38.1,10H21.9C15.3,10,10,15.3,10,21.9v16.2C10,44.7,15.3,50,21.9,50h16.2C44.7,50,50,44.7,50,38.1V21.9
			C50,15.3,44.7,10,38.1,10z M46,38.1c0,4.4-3.5,7.9-7.9,7.9H21.9c-4.4,0-7.9-3.5-7.9-7.9V21.9c0-4.4,3.5-7.9,7.9-7.9h16.2
			c4.4,0,7.9,3.5,7.9,7.9V38.1L46,38.1z"/>
		<path d="M30,19.7c-5.7,0-10.3,4.6-10.3,10.3S24.3,40.3,30,40.3S40.3,35.7,40.3,30S35.7,19.7,30,19.7z M30,36.3
			c-3.5,0-6.3-2.8-6.3-6.3s2.8-6.3,6.3-6.3c3.5,0,6.3,2.8,6.3,6.3C36.3,33.5,33.5,36.3,30,36.3z"/>
		<circle cx="40.4" cy="19.7" r="2.5"/>
	</g>
</g>
<g id="Layer_3" display="none">
	<g display="inline">
		<path d="M31.7,28L31.7,28C31.6,27.9,31.6,27.9,31.7,28L31.7,28z"/>
		<path d="M10,14v32c0,2.2,1.8,4,4,4h32c2.2,0,4-1.8,4-4V14c0-2.2-1.8-4-4-4H14C11.8,10,10,11.8,10,14z M22.4,43.2h-5.9V25.4h5.9
			V43.2z M19.5,22.9L19.5,22.9c-2,0-3.3-1.4-3.3-3.1c0-1.8,1.3-3.1,3.4-3.1c2,0,3.3,1.3,3.3,3.1C22.8,21.6,21.5,22.9,19.5,22.9z
			 M43.8,43.2h-5.9v-9.6c0-2.4-0.9-4-3-4c-1.6,0-2.6,1.1-3,2.2c-0.2,0.4-0.2,0.9-0.2,1.4v10h-5.9c0,0,0.1-16.2,0-17.9h5.9v2.5
			c0.8-1.2,2.2-2.9,5.3-2.9c3.9,0,6.8,2.6,6.8,8V43.2z"/>
	</g>
</g>
<g id="Layer_4" display="none">
	<path display="inline" d="M46,10H14c-2.2,0-4,1.8-4,4v32c0,2.2,1.8,4,4,4h15.8l0-14.3h-3.7c-0.5,0-0.9-0.4-0.9-0.9l0-4.6
		c0-0.5,0.4-0.9,0.9-0.9h3.7v-4.5c0-5.2,3.2-8,7.8-8h3.8c0.5,0,0.9,0.4,0.9,0.9v3.9c0,0.5-0.4,0.9-0.9,0.9l-2.3,0
		c-2.5,0-3,1.2-3,2.9v3.9h5.5c0.5,0,0.9,0.5,0.9,1l-0.5,4.6c-0.1,0.4-0.4,0.8-0.9,0.8h-4.9L36,50h10c2.2,0,4-1.8,4-4V14
		C50,11.8,48.2,10,46,10z"/>
</g>
</svg>
